<?xml version="1.0" encoding="UTF-8"?>
<svg width="210px" height="86px" viewBox="0 0 210 86" version="1.1" xmlns="http://www.w3.org/2000/svg" xmlns:xlink="http://www.w3.org/1999/xlink">
    <!-- Generator: Sketch 43.2 (39069) - http://www.bohemiancoding.com/sketch -->
    <title>MUSEUM BINGO</title>
    <desc>Created with Sketch.</desc>
    <defs></defs>
    <g id="app-screens" stroke="none" stroke-width="1" fill="none" fill-rule="evenodd">
        <g id="Login" transform="translate(-77.000000, -62.000000)" fill="#FFFFFF">
            <path d="M96.33,63.096 L105.298,63.096 L111.492,80.652 L111.568,80.652 L117.8,63.096 L126.73,63.096 L126.73,90 L120.802,90 L120.802,69.366 L120.726,69.366 L113.658,90 L109.136,90 L102.334,69.366 L102.258,69.366 L102.258,90 L96.33,90 L96.33,63.096 Z M154.888,79.626 C154.888,81.222008 154.647336,82.6913266 154.166,84.034 C153.684664,85.3766734 152.969005,86.5419951 152.019,87.53 C151.068995,88.5180049 149.884674,89.2906639 148.466,89.848 C147.047326,90.4053361 145.413343,90.684 143.564,90.684 C141.689324,90.684 140.042674,90.4053361 138.624,89.848 C137.205326,89.2906639 136.021005,88.5180049 135.071,87.53 C134.120995,86.5419951 133.405336,85.3766734 132.924,84.034 C132.442664,82.6913266 132.202,81.222008 132.202,79.626 L132.202,63.096 L138.13,63.096 L138.13,79.398 C138.13,80.2340042 138.262999,81.0066631 138.529,81.716 C138.795001,82.4253369 139.168664,83.0396641 139.65,83.559 C140.131336,84.0783359 140.707663,84.4836652 141.379,84.775 C142.050337,85.0663348 142.778663,85.212 143.564,85.212 C144.349337,85.212 145.07133,85.0663348 145.73,84.775 C146.38867,84.4836652 146.958664,84.0783359 147.44,83.559 C147.921336,83.0396641 148.294999,82.4253369 148.561,81.716 C148.827001,81.0066631 148.96,80.2340042 148.96,79.398 L148.96,63.096 L154.888,63.096 L154.888,79.626 Z M173.66,69.67 C173.178664,69.061997 172.526337,68.6123348 171.703,68.321 C170.879663,68.0296652 170.10067,67.884 169.366,67.884 C168.935331,67.884 168.492002,67.9346662 168.036,68.036 C167.579998,68.1373338 167.149335,68.2956656 166.744,68.511 C166.338665,68.7263344 166.009335,69.0113316 165.756,69.366 C165.502665,69.7206684 165.376,70.1513308 165.376,70.658 C165.376,71.4686707 165.679997,72.0893312 166.288,72.52 C166.896003,72.9506688 167.662329,73.3179985 168.587,73.622 C169.511671,73.9260015 170.505995,74.2299985 171.57,74.534 C172.634005,74.8380015 173.628329,75.2686639 174.553,75.826 C175.477671,76.3833361 176.243997,77.130662 176.852,78.068 C177.460003,79.005338 177.764,80.2593255 177.764,81.83 C177.764,83.3246741 177.485336,84.6293278 176.928,85.744 C176.370664,86.8586722 175.617005,87.7833297 174.667,88.518 C173.716995,89.2526703 172.615006,89.7973316 171.361,90.152 C170.106994,90.5066684 168.78334,90.684 167.39,90.684 C165.641991,90.684 164.020674,90.4180027 162.526,89.886 C161.031326,89.3539973 159.638006,88.4926726 158.346,87.302 L162.564,82.666 C163.172003,83.4766707 163.938329,84.1036644 164.863,84.547 C165.787671,84.9903355 166.743995,85.212 167.732,85.212 C168.213336,85.212 168.700998,85.1550006 169.195,85.041 C169.689002,84.9269994 170.132331,84.7560011 170.525,84.528 C170.917669,84.2999989 171.234332,84.0086684 171.475,83.654 C171.715668,83.2993316 171.836,82.8813357 171.836,82.4 C171.836,81.5893293 171.52567,80.949669 170.905,80.481 C170.28433,80.012331 169.505338,79.613335 168.568,79.284 C167.630662,78.954665 166.617339,78.625335 165.528,78.296 C164.438661,77.966665 163.425338,77.5233361 162.488,76.966 C161.550662,76.4086639 160.77167,75.6740046 160.151,74.762 C159.53033,73.8499954 159.22,72.6466741 159.22,71.152 C159.22,69.7079928 159.504997,68.4413388 160.075,67.352 C160.645003,66.2626612 161.404995,65.3506703 162.355,64.616 C163.305005,63.8813297 164.40066,63.3303352 165.642,62.963 C166.88334,62.5956648 168.16266,62.412 169.48,62.412 C171.000008,62.412 172.469326,62.6273312 173.888,63.058 C175.306674,63.4886688 176.585994,64.2106616 177.726,65.224 L173.66,69.67 Z M182.4,63.096 L200.678,63.096 L200.678,68.568 L188.328,68.568 L188.328,73.584 L199.994,73.584 L199.994,79.056 L188.328,79.056 L188.328,84.528 L201.362,84.528 L201.362,90 L182.4,90 L182.4,63.096 Z M228.798,79.626 C228.798,81.222008 228.557336,82.6913266 228.076,84.034 C227.594664,85.3766734 226.879005,86.5419951 225.929,87.53 C224.978995,88.5180049 223.794674,89.2906639 222.376,89.848 C220.957326,90.4053361 219.323343,90.684 217.474,90.684 C215.599324,90.684 213.952674,90.4053361 212.534,89.848 C211.115326,89.2906639 209.931005,88.5180049 208.981,87.53 C208.030995,86.5419951 207.315336,85.3766734 206.834,84.034 C206.352664,82.6913266 206.112,81.222008 206.112,79.626 L206.112,63.096 L212.04,63.096 L212.04,79.398 C212.04,80.2340042 212.172999,81.0066631 212.439,81.716 C212.705001,82.4253369 213.078664,83.0396641 213.56,83.559 C214.041336,84.0783359 214.617663,84.4836652 215.289,84.775 C215.960337,85.0663348 216.688663,85.212 217.474,85.212 C218.259337,85.212 218.98133,85.0663348 219.64,84.775 C220.29867,84.4836652 220.868664,84.0783359 221.35,83.559 C221.831336,83.0396641 222.204999,82.4253369 222.471,81.716 C222.737001,81.0066631 222.87,80.2340042 222.87,79.398 L222.87,63.096 L228.798,63.096 L228.798,79.626 Z M234.27,63.096 L243.238,63.096 L249.432,80.652 L249.508,80.652 L255.74,63.096 L264.67,63.096 L264.67,90 L258.742,90 L258.742,69.366 L258.666,69.366 L251.598,90 L247.076,90 L240.274,69.366 L240.198,69.366 L240.198,90 L234.27,90 L234.27,63.096 Z M77.3,100.688 L94.196,100.688 C96.1586765,100.688 98.1319901,100.826665 100.116,101.104 C102.10001,101.381335 103.881325,101.935996 105.46,102.768 C107.038675,103.600004 108.318662,104.762659 109.3,106.256 C110.281338,107.749341 110.772,109.733321 110.772,112.208 C110.772,114.768013 110.05734,116.890658 108.628,118.576 C107.19866,120.261342 105.310678,121.466663 102.964,122.192 L102.964,122.32 C104.457341,122.533334 105.811994,122.94933 107.028,123.568 C108.244006,124.18667 109.289329,124.975995 110.164,125.936 C111.038671,126.896005 111.710664,128.015994 112.18,129.296 C112.649336,130.576006 112.884,131.941326 112.884,133.392 C112.884,135.781345 112.372005,137.775992 111.348,139.376 C110.323995,140.976008 109.001341,142.266662 107.38,143.248 C105.758659,144.229338 103.934677,144.933331 101.908,145.36 C99.8813232,145.786669 97.8653434,146 95.86,146 L77.3,146 L77.3,100.688 Z M87.284,118.8 L94.516,118.8 C95.2840038,118.8 96.0413296,118.714668 96.788,118.544 C97.5346704,118.373332 98.2066637,118.096002 98.804,117.712 C99.4013363,117.327998 99.8813315,116.816003 100.244,116.176 C100.606668,115.535997 100.788,114.768004 100.788,113.872 C100.788,112.933329 100.585335,112.15467 100.18,111.536 C99.7746646,110.91733 99.2520032,110.437335 98.612,110.096 C97.9719968,109.754665 97.2466707,109.509334 96.436,109.36 C95.6253293,109.210666 94.8360038,109.136 94.068,109.136 L87.284,109.136 L87.284,118.8 Z M87.284,137.552 L96.244,137.552 C97.0120038,137.552 97.7906627,137.466668 98.58,137.296 C99.3693373,137.125332 100.083997,136.826669 100.724,136.4 C101.364003,135.973331 101.886665,135.41867 102.292,134.736 C102.697335,134.05333 102.9,133.221338 102.9,132.24 C102.9,131.173328 102.633336,130.309337 102.1,129.648 C101.566664,128.986663 100.894671,128.485335 100.084,128.144 C99.2733293,127.802665 98.3986714,127.568001 97.46,127.44 C96.5213286,127.311999 95.6466707,127.248 94.836,127.248 L87.284,127.248 L87.284,137.552 Z M118.644,100.688 L128.628,100.688 L128.628,146 L118.644,146 L118.644,100.688 Z M137.716,100.688 L151.284,100.688 L170.548,132.176 L170.676,132.176 L170.676,100.688 L180.66,100.688 L180.66,146 L167.604,146 L147.828,113.744 L147.7,113.744 L147.7,146 L137.716,146 L137.716,100.688 Z M230.9,142.8 C227.955985,144.336008 224.884016,145.44533 221.684,146.128 C218.483984,146.81067 215.220017,147.152 211.892,147.152 C208.350649,147.152 205.086682,146.597339 202.1,145.488 C199.113318,144.378661 196.532011,142.789344 194.356,140.72 C192.179989,138.650656 190.484006,136.144015 189.268,133.2 C188.051994,130.255985 187.444,126.970685 187.444,123.344 C187.444,119.717315 188.051994,116.432015 189.268,113.488 C190.484006,110.543985 192.179989,108.037344 194.356,105.968 C196.532011,103.898656 199.113318,102.309339 202.1,101.2 C205.086682,100.090661 208.350649,99.536 211.892,99.536 C215.518685,99.536 218.857318,99.973329 221.908,100.848 C224.958682,101.722671 227.635988,103.226656 229.94,105.36 L222.9,113.04 C221.53466,111.631993 219.998675,110.565337 218.292,109.84 C216.585325,109.114663 214.452013,108.752 211.892,108.752 C209.758656,108.752 207.828009,109.114663 206.1,109.84 C204.371991,110.565337 202.88934,111.57866 201.652,112.88 C200.41466,114.18134 199.465337,115.727991 198.804,117.52 C198.142663,119.312009 197.812,121.253323 197.812,123.344 C197.812,125.477344 198.142663,127.429324 198.804,129.2 C199.465337,130.970676 200.41466,132.50666 201.652,133.808 C202.88934,135.10934 204.371991,136.122663 206.1,136.848 C207.828009,137.573337 209.758656,137.936 211.892,137.936 C214.068011,137.936 215.945325,137.690669 217.524,137.2 C219.102675,136.709331 220.361329,136.208003 221.3,135.696 L221.3,128.336 L213.172,128.336 L213.172,119.12 L230.9,119.12 L230.9,142.8 Z M237.236,123.344 C237.236,119.717315 237.843994,116.432015 239.06,113.488 C240.276006,110.543985 241.971989,108.037344 244.148,105.968 C246.324011,103.898656 248.905318,102.309339 251.892,101.2 C254.878682,100.090661 258.142649,99.536 261.684,99.536 C265.225351,99.536 268.489318,100.090661 271.476,101.2 C274.462682,102.309339 277.043989,103.898656 279.22,105.968 C281.396011,108.037344 283.091994,110.543985 284.308,113.488 C285.524006,116.432015 286.132,119.717315 286.132,123.344 C286.132,126.970685 285.524006,130.255985 284.308,133.2 C283.091994,136.144015 281.396011,138.650656 279.22,140.72 C277.043989,142.789344 274.462682,144.378661 271.476,145.488 C268.489318,146.597339 265.225351,147.152 261.684,147.152 C258.142649,147.152 254.878682,146.597339 251.892,145.488 C248.905318,144.378661 246.324011,142.789344 244.148,140.72 C241.971989,138.650656 240.276006,136.144015 239.06,133.2 C237.843994,130.255985 237.236,126.970685 237.236,123.344 Z M247.604,123.344 C247.604,125.477344 247.934663,127.429324 248.596,129.2 C249.257337,130.970676 250.20666,132.50666 251.444,133.808 C252.68134,135.10934 254.163991,136.122663 255.892,136.848 C257.620009,137.573337 259.550656,137.936 261.684,137.936 C263.817344,137.936 265.747991,137.573337 267.476,136.848 C269.204009,136.122663 270.68666,135.10934 271.924,133.808 C273.16134,132.50666 274.110663,130.970676 274.772,129.2 C275.433337,127.429324 275.764,125.477344 275.764,123.344 C275.764,121.253323 275.433337,119.312009 274.772,117.52 C274.110663,115.727991 273.16134,114.18134 271.924,112.88 C270.68666,111.57866 269.204009,110.565337 267.476,109.84 C265.747991,109.114663 263.817344,108.752 261.684,108.752 C259.550656,108.752 257.620009,109.114663 255.892,109.84 C254.163991,110.565337 252.68134,111.57866 251.444,112.88 C250.20666,114.18134 249.257337,115.727991 248.596,117.52 C247.934663,119.312009 247.604,121.253323 247.604,123.344 Z" id="MUSEUM-BINGO"></path>
        </g>
    </g>
</svg>